<svg width="140" height="31" viewBox="0 0 140 31" fill="none" xmlns="http://www.w3.org/2000/svg">
<path d="M37.2037 18.1635V25.5857H33.3691V6.29682H39.179C40.4669 6.29682 41.5707 6.43722 42.4906 6.71804C43.4105 6.98916 44.161 7.37165 44.742 7.86549C45.3326 8.35933 45.7635 8.95 46.0347 9.63751C46.3058 10.325 46.4413 11.0803 46.4413 11.9034C46.4413 12.5328 46.3542 13.1331 46.1799 13.7044C46.0056 14.2661 45.749 14.7841 45.4101 15.2586C45.0809 15.7234 44.6742 16.1397 44.19 16.5077C43.7059 16.866 43.1491 17.1565 42.5197 17.3792C42.7618 17.5148 42.9893 17.6794 43.2023 17.873C43.4154 18.057 43.6139 18.2846 43.7979 18.5557L48.1117 25.5857H44.6693C44.0593 25.5857 43.5897 25.3291 43.2604 24.8158L39.7455 18.8026C39.6002 18.5702 39.4356 18.4056 39.2516 18.3088C39.0773 18.2119 38.8256 18.1635 38.4963 18.1635H37.2037ZM37.2037 15.4474H39.15C39.7697 15.4474 40.3022 15.3651 40.7477 15.2005C41.2028 15.0359 41.5756 14.8083 41.8661 14.5178C42.1566 14.2273 42.3696 13.8836 42.5052 13.4866C42.6504 13.0799 42.723 12.6393 42.723 12.1648C42.723 11.2255 42.4325 10.5041 41.8515 10.0006C41.2706 9.48742 40.3797 9.23081 39.179 9.23081H37.2037V15.4474Z" fill="#101011"/>
<path d="M53.0652 11.1626V20.3277C53.0652 21.1605 53.254 21.8044 53.6316 22.2595C54.0093 22.7146 54.5757 22.9422 55.331 22.9422C55.883 22.9422 56.4058 22.8211 56.8997 22.579C57.3935 22.3273 57.8583 21.9884 58.2941 21.5623V11.1626H61.9833V25.5857H59.7175C59.4851 25.5857 59.2866 25.5324 59.122 25.4259C58.967 25.3097 58.8654 25.1402 58.8169 24.9175L58.5555 23.8717C57.9842 24.443 57.35 24.9078 56.6528 25.2661C55.9653 25.6244 55.147 25.8035 54.1981 25.8035C53.4138 25.8035 52.7214 25.668 52.1211 25.3968C51.5207 25.1257 51.0172 24.7481 50.6105 24.2639C50.2038 23.7798 49.894 23.2036 49.6809 22.5355C49.4776 21.8673 49.3759 21.1314 49.3759 20.3277V11.1626H53.0652Z" fill="#101011"/>
<path d="M65.0631 25.5857V11.1626H67.329C67.5614 11.1626 67.755 11.2159 67.91 11.3224C68.0746 11.4289 68.1811 11.5935 68.2295 11.8162L68.4764 12.8329C68.7379 12.5618 69.0042 12.3101 69.2753 12.0777C69.5561 11.8453 69.8563 11.6468 70.1758 11.4821C70.4954 11.3079 70.8343 11.1723 71.1925 11.0755C71.5605 10.9786 71.9623 10.9302 72.3981 10.9302C73.318 10.9302 74.0733 11.1771 74.6639 11.671C75.2643 12.1551 75.7097 12.7991 76.0002 13.6028C76.2326 13.1283 76.5183 12.7216 76.8572 12.3827C77.2058 12.0438 77.5882 11.7678 78.0046 11.5548C78.421 11.3417 78.8567 11.1868 79.3118 11.09C79.7766 10.9835 80.2414 10.9302 80.7062 10.9302C81.5196 10.9302 82.241 11.0561 82.8704 11.3078C83.5095 11.5499 84.042 11.9082 84.4681 12.3827C84.9038 12.8475 85.2331 13.4188 85.4558 14.0966C85.6785 14.7744 85.7898 15.5442 85.7898 16.406V25.5857H82.1006V16.406C82.1006 14.6727 81.3259 13.8061 79.7766 13.8061C79.428 13.8061 79.1036 13.8642 78.8035 13.9804C78.5033 14.0869 78.237 14.2515 78.0046 14.4742C77.7819 14.6873 77.6028 14.9584 77.4672 15.2876C77.3413 15.6072 77.2784 15.98 77.2784 16.406V25.5857H73.5891V16.406C73.5891 15.4764 73.3954 14.8132 73.0081 14.4161C72.6208 14.0094 72.0592 13.8061 71.3233 13.8061C70.8294 13.8061 70.3695 13.9175 69.9434 14.1402C69.5174 14.3629 69.1204 14.6776 68.7524 15.0843V25.5857H65.0631Z" fill="#101011"/>
<path d="M88.6082 25.5857V4.71362H92.2975V12.862C92.8591 12.281 93.4836 11.8162 94.1711 11.4676C94.8586 11.1093 95.6333 10.9302 96.4951 10.9302C97.3182 10.9302 98.0589 11.0948 98.7174 11.424C99.3758 11.7533 99.9374 12.2277 100.402 12.8475C100.867 13.4575 101.225 14.1983 101.477 15.0698C101.729 15.9412 101.855 16.9192 101.855 18.0037C101.855 19.1754 101.709 20.2406 101.419 21.1992C101.128 22.1578 100.717 22.9809 100.184 23.6684C99.6518 24.3462 99.0127 24.8739 98.2671 25.2516C97.5312 25.6196 96.7081 25.8035 95.7979 25.8035C95.3525 25.8035 94.9506 25.76 94.5924 25.6728C94.2438 25.5857 93.9194 25.4646 93.6192 25.3097C93.319 25.1451 93.0431 24.9514 92.7913 24.7287C92.5492 24.4963 92.312 24.2397 92.0796 23.9589L91.9198 24.8885C91.8714 25.1499 91.7746 25.3339 91.6293 25.4404C91.4841 25.5372 91.2953 25.5857 91.0629 25.5857H88.6082ZM95.2169 13.8061C94.5972 13.8061 94.0598 13.9465 93.6047 14.2273C93.1496 14.4984 92.7138 14.8955 92.2975 15.4183V21.7802C92.6654 22.2353 93.0624 22.5548 93.4885 22.7388C93.9145 22.9228 94.3697 23.0148 94.8538 23.0148C95.338 23.0148 95.7785 22.9276 96.1756 22.7533C96.5726 22.5694 96.9066 22.2837 97.1778 21.8964C97.4586 21.4994 97.6716 20.9958 97.8168 20.3858C97.9718 19.7661 98.0492 19.0205 98.0492 18.149C98.0492 17.3743 97.9863 16.7159 97.8604 16.1736C97.7345 15.6217 97.5506 15.1714 97.3085 14.8228C97.0761 14.4742 96.7807 14.2176 96.4225 14.053C96.0739 13.8884 95.672 13.8061 95.2169 13.8061Z" fill="#101011"/>
<path d="M110.018 10.9302C110.928 10.9302 111.766 11.0803 112.531 11.3805C113.296 11.671 113.954 12.097 114.506 12.6586C115.058 13.2106 115.489 13.8933 115.799 14.7066C116.109 15.52 116.264 16.4496 116.264 17.4954C116.264 17.7762 116.249 18.0086 116.22 18.1926C116.191 18.3669 116.143 18.5073 116.075 18.6138C116.017 18.7203 115.93 18.7978 115.813 18.8462C115.707 18.8849 115.571 18.9043 115.407 18.9043H106.779C106.837 19.6015 106.963 20.2067 107.157 20.7199C107.35 21.2331 107.607 21.6543 107.927 21.9835C108.246 22.3128 108.624 22.5597 109.06 22.7243C109.495 22.8792 109.979 22.9567 110.512 22.9567C111.045 22.9567 111.505 22.8937 111.892 22.7679C112.289 22.6323 112.633 22.4919 112.923 22.3466C113.223 22.1917 113.49 22.0513 113.722 21.9254C113.954 21.7899 114.182 21.7221 114.405 21.7221C114.676 21.7221 114.898 21.8334 115.073 22.0562L116.133 23.4215C115.736 23.8863 115.295 24.2736 114.811 24.5835C114.327 24.8836 113.824 25.1257 113.301 25.3097C112.788 25.484 112.265 25.6099 111.732 25.6873C111.199 25.7648 110.686 25.8035 110.192 25.8035C109.195 25.8035 108.266 25.6389 107.404 25.3097C106.542 24.9805 105.791 24.4915 105.152 23.8427C104.513 23.1842 104.01 22.3757 103.642 21.4171C103.284 20.4487 103.104 19.3303 103.104 18.0618C103.104 17.0839 103.264 16.164 103.584 15.3021C103.903 14.4307 104.358 13.6754 104.949 13.0363C105.549 12.3875 106.276 11.8743 107.128 11.4967C107.98 11.119 108.943 10.9302 110.018 10.9302ZM110.091 13.5592C109.152 13.5592 108.416 13.8352 107.883 14.3871C107.35 14.9293 107.007 15.6992 106.852 16.6965H112.952C112.952 16.2801 112.894 15.8831 112.778 15.5055C112.671 15.1279 112.497 14.7938 112.255 14.5033C112.023 14.2128 111.727 13.9852 111.369 13.8206C111.011 13.6463 110.585 13.5592 110.091 13.5592Z" fill="#101011"/>
<path d="M118.182 25.5857V11.1626H120.346C120.723 11.1626 120.985 11.2304 121.13 11.3659C121.285 11.5015 121.387 11.7387 121.435 12.0777L121.624 13.5447C122.06 12.7216 122.568 12.0728 123.149 11.5983C123.73 11.1239 124.403 10.8866 125.168 10.8866C125.797 10.8866 126.315 11.0367 126.722 11.3369L126.446 14.0966C126.427 14.2709 126.369 14.3968 126.272 14.4742C126.175 14.542 126.044 14.5759 125.88 14.5759C125.734 14.5759 125.526 14.5565 125.255 14.5178C124.984 14.4694 124.732 14.4452 124.5 14.4452C124.161 14.4452 123.856 14.4936 123.585 14.5904C123.323 14.6873 123.086 14.8325 122.873 15.0262C122.67 15.2102 122.486 15.4377 122.321 15.7088C122.157 15.98 122.006 16.2898 121.871 16.6384V25.5857H118.182Z" fill="#101011"/>
<path d="M132.91 10.9157C133.491 10.9157 134.038 10.9786 134.551 11.1045C135.074 11.2304 135.554 11.4095 135.989 11.6419H139.998V13.0218C139.998 13.2348 139.935 13.4043 139.809 13.5301C139.693 13.656 139.495 13.748 139.214 13.8061L138.081 14.0385C138.255 14.5227 138.342 15.0359 138.342 15.5781C138.342 16.2947 138.202 16.9434 137.921 17.5244C137.65 18.0957 137.268 18.5847 136.774 18.9914C136.29 19.3981 135.713 19.7128 135.045 19.9355C134.387 20.1486 133.675 20.2551 132.91 20.2551C132.678 20.2551 132.45 20.2454 132.228 20.226C132.005 20.2067 131.782 20.1776 131.559 20.1389C131.201 20.3713 131.022 20.6424 131.022 20.9523C131.022 21.2331 131.148 21.4364 131.4 21.5623C131.651 21.6882 131.981 21.7802 132.387 21.8383C132.794 21.8867 133.259 21.9206 133.782 21.94C134.305 21.9496 134.837 21.9787 135.379 22.0271C135.931 22.0755 136.469 22.1578 136.992 22.274C137.515 22.3902 137.979 22.579 138.386 22.8405C138.793 23.1019 139.122 23.4505 139.374 23.8863C139.625 24.322 139.751 24.8836 139.751 25.5711C139.751 26.2102 139.601 26.8299 139.301 27.4303C139.001 28.0403 138.565 28.5826 137.994 29.0571C137.423 29.5315 136.72 29.9092 135.888 30.19C135.055 30.4805 134.106 30.6257 133.041 30.6257C131.995 30.6257 131.085 30.5192 130.31 30.3062C129.536 30.0932 128.897 29.8124 128.393 29.4638C127.889 29.1152 127.512 28.7085 127.26 28.2437C127.018 27.7886 126.897 27.3141 126.897 26.8203C126.897 26.1715 127.081 25.6244 127.449 25.179C127.817 24.7239 128.325 24.3607 128.974 24.0896C128.635 23.8959 128.359 23.6297 128.146 23.2908C127.943 22.9518 127.841 22.5209 127.841 21.9981C127.841 21.785 127.875 21.5672 127.943 21.3444C128.02 21.112 128.136 20.8845 128.291 20.6618C128.446 20.4294 128.635 20.2115 128.858 20.0082C129.081 19.8048 129.347 19.6208 129.657 19.4562C128.959 19.0592 128.408 18.5363 128.001 17.8876C127.604 17.2291 127.405 16.4593 127.405 15.5781C127.405 14.8616 127.546 14.2176 127.827 13.6463C128.107 13.0653 128.49 12.5763 128.974 12.1793C129.468 11.7726 130.049 11.4628 130.717 11.2498C131.395 11.027 132.126 10.9157 132.91 10.9157ZM136.353 26.1957C136.353 25.9343 136.28 25.7212 136.135 25.5566C135.989 25.392 135.791 25.2661 135.539 25.179C135.287 25.0821 134.992 25.0144 134.653 24.9756C134.314 24.9272 133.951 24.8933 133.564 24.8739C133.186 24.8449 132.789 24.8207 132.373 24.8013C131.966 24.782 131.564 24.7481 131.167 24.6996C130.848 24.903 130.586 25.1402 130.383 25.4114C130.189 25.6825 130.092 25.9972 130.092 26.3555C130.092 26.5975 130.141 26.8203 130.238 27.0236C130.344 27.227 130.514 27.4012 130.746 27.5465C130.978 27.6917 131.288 27.8031 131.676 27.8806C132.063 27.9677 132.542 28.0113 133.114 28.0113C133.714 28.0113 134.217 27.9629 134.624 27.866C135.04 27.7789 135.375 27.653 135.626 27.4884C135.888 27.3335 136.072 27.1446 136.178 26.9219C136.294 26.6992 136.353 26.4571 136.353 26.1957ZM132.91 17.8876C133.656 17.8876 134.203 17.6842 134.551 17.2775C134.91 16.8708 135.089 16.3334 135.089 15.6653C135.089 14.9874 134.91 14.4549 134.551 14.0675C134.203 13.6705 133.656 13.472 132.91 13.472C132.174 13.472 131.627 13.6705 131.269 14.0675C130.92 14.4549 130.746 14.9874 130.746 15.6653C130.746 16.3237 130.92 16.8611 131.269 17.2775C131.627 17.6842 132.174 17.8876 132.91 17.8876Z" fill="#101011"/>
<path d="M6.54304 15.6693L1.81261 12.9099C1.00909 12.4412 0 13.0208 0 13.951V25.045C0 25.4737 0.227695 25.8701 0.597983 26.0861L8.5185 30.7064C9.32202 31.1751 10.3311 30.5956 10.3311 29.6653V24.1586L7.14102 22.2977C6.77073 22.0817 6.54304 21.6852 6.54304 21.2566V15.6693Z" fill="#02A1E5"/>
<path d="M13.0889 9.29848L8.35851 6.53905C7.55499 6.07033 6.5459 6.64992 6.5459 7.58016V15.6697L9.73599 17.5306C10.1063 17.7466 10.334 18.143 10.334 18.5717V24.1589L15.0644 26.9184C15.8679 27.3871 16.877 26.8075 16.877 25.8773V20.371L13.6869 18.5102C13.3166 18.2941 13.0889 17.8977 13.0889 17.469V9.29848Z" fill="#0080BF"/>
<path d="M14.9042 0.167834C14.1006 -0.300887 13.0916 0.278707 13.0916 1.20895V9.29794L16.2816 11.1588C16.6519 11.3748 16.8796 11.7713 16.8796 12.1999V20.3705L21.6101 23.1299C22.4136 23.5987 23.4227 23.0191 23.4227 22.0888V5.82927C23.4227 5.40058 23.195 5.00416 22.8247 4.78816L14.9042 0.167834Z" fill="#7092BF"/>
</svg>
